<svg width="2321" height="1895" viewBox="0 0 2321 1895" fill="none" xmlns="http://www.w3.org/2000/svg">
<rect width="2321" height="1895" fill="white"/>
<mask id="mask0_303_2" style="mask-type:luminance" maskUnits="userSpaceOnUse" x="95" y="90" width="2132" height="1416">
<path fill-rule="evenodd" clip-rule="evenodd" d="M448.302 90L95 701.083L2223.01 1505.15L2226.51 90H448.302Z" fill="white"/>
</mask>
<g mask="url(#mask0_303_2)">
<g style="mix-blend-mode:multiply">
<path d="M571.57 645.189C403.23 945.311 607.96 1375.08 946.342 1432.01L1600.94 1542.16C1960.82 1602.71 2188.05 1199.31 1996.65 839.571L1647.89 184.051C1467.62 -154.842 1046.01 -200.938 877.366 99.8009L571.57 645.189Z" fill="#FAE041"/>
</g>
<g style="mix-blend-mode:multiply">
<path d="M690.804 291.715C657.543 283.344 623.602 298.979 599.216 333.913L488.578 492.409C457.087 537.525 446.987 606.775 463.048 667.486L604.766 1203.25C623.95 1275.77 675.149 1317.07 726.076 1301.08L1099.94 1183.71C1144.48 1169.73 1178.23 1115.03 1184.08 1047.37L1207.12 780.81C1210.12 746.157 1205.48 710.983 1193.92 680.644L1108.56 456.641C1092.65 414.877 1065.08 386.028 1033.44 378.059L690.804 291.715Z" fill="#20BEFF"/>
</g>
</g>
<path fill-rule="evenodd" clip-rule="evenodd" d="M1144.54 1374.5L876.556 1254.56L861.5 448.125L1144.54 319.771L1416.98 448.125L1435.5 1221.39L1144.54 1374.5Z" fill="white"/>
<path fill-rule="evenodd" clip-rule="evenodd" d="M1655.1 1021.56C1656.5 1022.08 1657.89 1022.53 1659.25 1022.96C1661.05 1023.54 1662.79 1024.1 1664.4 1024.79C1672.19 1027.94 1679.9 1031.26 1687.64 1034.59L1687.64 1034.59C1696.76 1038.51 1705.92 1042.46 1715.32 1046.16C1722.59 1048.99 1725.42 1053.83 1725.01 1061.09C1723.8 1095.77 1722.59 1130.46 1721.78 1165.55C1721.78 1167.56 1721.78 1169.18 1721.38 1171.19C1720.16 1177.24 1717.74 1178.86 1712.08 1176.84C1702.38 1172.81 1692.79 1168.67 1683.19 1164.54L1683.19 1164.54L1683.19 1164.54C1673.59 1160.4 1663.99 1156.27 1654.3 1152.24C1650.66 1150.62 1648.24 1147.8 1648.24 1143.77C1648.33 1134.75 1648.27 1125.73 1648.22 1116.72C1648.04 1085.82 1647.86 1054.98 1653.49 1024.38C1653.49 1023.69 1653.79 1023.29 1654.65 1022.16C1654.79 1021.98 1654.94 1021.78 1655.1 1021.56ZM1680.16 1107.87C1679.35 1107.87 1676.12 1107.87 1672.89 1109.08C1666.42 1111.1 1664.4 1115.54 1666.02 1121.58C1668.84 1133.68 1687.03 1142.96 1698.34 1138.12C1705.21 1135.3 1707.64 1130.05 1705.21 1123.2C1701.98 1113.92 1693.09 1107.47 1680.16 1107.87ZM1675.98 1056.92C1678.78 1056.56 1681.29 1056.25 1683.8 1056.25C1693.49 1055.44 1699.56 1060.68 1704 1067.94C1707.64 1073.99 1705.62 1079.24 1699.15 1082.46C1688.65 1088.11 1670.86 1081.25 1666.42 1070.36C1664.4 1064.72 1666.02 1060.28 1671.67 1057.86C1671.93 1057.78 1672.16 1057.69 1672.39 1057.61C1673.24 1057.31 1673.95 1057.05 1674.91 1057.05C1675.27 1057.01 1675.63 1056.96 1675.98 1056.92Z" fill="#202124"/>
<ellipse cx="1678.75" cy="1066.5" rx="1.75" ry="3.5" fill="#202124"/>
<ellipse cx="1678.75" cy="1122.5" rx="1.75" ry="3.5" fill="#202124"/>
<ellipse cx="1689.25" cy="1070" rx="1.75" ry="3.5" fill="#202124"/>
<ellipse cx="1689.25" cy="1122.5" rx="1.75" ry="3.5" fill="#202124"/>
<path fill-rule="evenodd" clip-rule="evenodd" d="M902.239 512.938C899.64 511.909 896.962 510.849 894.188 509.742C888.935 519.019 888.935 527.892 889.339 536.765C890.159 551.219 891.348 565.858 892.532 580.432C893.099 587.411 893.665 594.375 894.188 601.297C894.592 606.137 897.017 608.96 901.462 610.977C965.31 639.613 1029.16 668.652 1093 697.691C1106.34 703.741 1108.76 702.531 1108.76 687.205C1108.94 676.661 1108.89 666.117 1108.84 655.573C1108.77 641.514 1108.71 627.455 1109.17 613.396C1109.57 603.313 1106.34 598.473 1097.05 594.44C1036.83 569.434 976.624 544.025 916.414 518.615C911.901 516.761 907.215 514.906 902.239 512.938ZM1098.66 609.767V688.415C1097.59 688.025 1096.63 687.682 1095.76 687.369C1093.02 686.388 1091.11 685.702 1088.96 684.785C1030.77 658.165 972.583 631.546 913.989 605.33C908.736 602.91 906.311 600.087 905.907 594.037C905.301 583.551 904.695 573.165 904.089 562.779C903.482 552.394 902.876 542.008 902.27 531.522C902.001 530.984 902.27 530.446 902.599 529.789C902.764 529.46 902.944 529.102 903.078 528.698C968.538 555.72 1033.59 582.741 1098.65 609.762L1098.66 609.767Z" fill="#202124"/>
<path fill-rule="evenodd" clip-rule="evenodd" d="M1103.51 954.602C1105.04 954.945 1106.66 955.311 1108.36 955.819C1108.49 954.914 1108.66 954.092 1108.82 953.326C1109.16 951.703 1109.44 950.332 1109.17 948.962C1107.96 935.047 1106.64 921.234 1105.33 907.42C1104.02 893.606 1102.7 879.792 1101.49 865.877C1101.09 861.441 1099.47 858.618 1095.02 857.004L1069.57 846.115C1041.48 834.216 1013.3 822.217 985.109 810.218C956.924 798.22 928.738 786.221 900.653 774.323C900.177 774.085 899.561 774.267 898.64 774.54C897.997 774.73 897.205 774.964 896.208 775.129V788.036C896.612 800.741 897.117 813.344 897.622 825.948C898.127 838.552 898.633 851.156 899.037 863.861C899.441 869.911 902.269 873.137 907.523 875.154C939.244 888.06 970.966 901.067 1002.69 914.074C1034.41 927.082 1066.13 940.089 1097.85 952.995C1099.49 953.697 1101.41 954.128 1103.51 954.602ZM909.942 824.33C909.843 813.132 909.742 801.738 909.543 790.052C922.878 796.102 935.81 801.749 949.145 807.395C992.788 825.948 1036.43 844.098 1080.07 862.247C1087.35 865.071 1090.58 868.701 1090.98 877.17C1091.59 891.085 1092.88 905 1094.17 918.915C1094.6 923.553 1095.02 928.191 1095.43 932.829V939.282C1094.17 938.863 1092.96 938.492 1091.79 938.136C1089.6 937.465 1087.58 936.846 1085.73 936.056C1042.9 919.116 1000.06 902.177 956.823 885.237C950.559 882.817 944.195 880.498 937.83 878.179C931.466 875.86 925.101 873.541 918.838 871.121C910.351 867.894 910.351 867.894 910.351 858.618C910.146 847.328 910.045 835.934 909.942 824.33Z" fill="#202124"/>
<path fill-rule="evenodd" clip-rule="evenodd" d="M1107.24 1058.26C1107.06 1055.71 1106.88 1053.15 1106.74 1050.6C1105.94 1033.66 1104.72 1016.72 1103.51 1000.18C1103.11 991.311 1099.87 986.068 1091.39 982.841C1074.94 976.091 1058.48 969.175 1041.99 962.243C1022.03 953.852 1002.01 945.438 981.877 937.266C963.36 929.589 944.642 922.313 925.865 915.014C918.007 911.959 910.138 908.9 902.269 905.806C895.4 903.386 892.571 905 892.975 911.453C893.379 924.158 893.985 936.762 894.592 949.365C895.198 961.969 895.804 974.573 896.208 987.278C896.612 994.134 899.845 998.168 906.31 1000.99C943.044 1016.38 979.245 1032.03 1015.56 1047.73C1023.99 1051.37 1032.43 1055.02 1040.88 1058.67C1053 1064.04 1065.48 1069.06 1077.96 1074.08C1084.2 1076.59 1090.44 1079.1 1096.64 1081.66C1106.74 1085.69 1108.36 1084.48 1107.96 1073.59C1107.96 1068.48 1107.6 1063.37 1107.24 1058.26ZM987.129 949.741C1023.23 965.158 1059.19 980.519 1095.02 995.748C1095.39 1018.11 1096.07 1039.82 1096.79 1062.62C1096.87 1065.32 1096.96 1068.03 1097.04 1070.77C1054.75 1053.02 1012.81 1035.63 970.876 1018.24C949.908 1009.55 928.94 1000.86 907.927 992.118C907.548 969.056 906.814 944.93 906.058 920.074C906.008 918.414 905.957 916.75 905.906 915.083C933.055 926.646 960.129 938.21 987.129 949.741Z" fill="#202124"/>
<path fill-rule="evenodd" clip-rule="evenodd" d="M898.276 645.156C896.612 644.717 894.604 644.187 891.763 643.242C891.763 644.863 891.734 646.34 891.707 647.71C891.634 651.453 891.576 654.406 892.167 657.359C892.983 667.29 893.93 677.157 894.876 687.01C896.274 701.565 897.669 716.093 898.633 730.764C899.037 738.83 902.674 742.863 909.948 746.09C941.063 759.198 972.077 772.406 1003.09 785.615C1034.11 798.824 1065.12 812.033 1096.24 825.141C1108.76 830.385 1110.78 828.771 1109.98 815.058C1109.28 805.206 1108.37 795.353 1107.45 785.5C1106.23 772.364 1105.01 759.227 1104.32 746.09C1103.91 735.2 1099.47 729.554 1089.77 725.52C1027.14 699.304 964.097 672.685 901.461 646.065C900.457 645.731 899.453 645.466 898.276 645.156ZM1097.29 806.486C1097.59 809.536 1097.93 812.866 1098.26 816.672C1034.41 789.246 972.583 763.029 910.352 737.217C907.523 711.001 905.098 684.785 902.674 657.762C903.909 658.224 904.908 658.569 905.761 658.863C907.141 659.339 908.14 659.683 909.139 660.182C931.883 669.706 954.502 679.293 977.094 688.869C1011.9 703.623 1046.65 718.35 1081.69 732.78C1089.77 736.007 1092.6 739.637 1092.6 748.51C1092.87 758.727 1093.86 768.945 1094.84 779.162C1095.34 784.271 1095.83 789.38 1096.24 794.489C1096.48 798.295 1096.85 802.101 1097.29 806.486Z" fill="#202124"/>
<path fill-rule="evenodd" clip-rule="evenodd" d="M1008.46 635.265C1009.58 635.624 1010.7 635.982 1011.78 636.386C1012.28 635.142 1012.93 634.358 1013.36 633.845C1013.62 633.527 1013.8 633.313 1013.8 633.159C1013.8 626.101 1013.9 618.942 1014 611.783C1014.1 604.624 1014.21 597.465 1014.21 590.407C1014.21 585.567 1010.57 583.55 1006.93 581.937C984.302 571.854 962.077 562.174 939.447 552.494C937.158 551.352 934.464 551.018 931.365 550.635C930.087 550.477 928.74 550.31 927.324 550.074C927.324 554.369 927.419 558.473 927.512 562.452C927.689 570.058 927.855 577.207 927.324 584.357C926.92 591.213 929.345 595.65 935.81 598.876C949.674 605.669 963.381 612.776 977.127 619.903C985.417 624.202 993.721 628.507 1002.08 632.756C1003.97 633.831 1006.21 634.548 1008.46 635.265ZM935.099 568.933C935.052 566.442 935.002 563.803 935.002 560.964C938.537 562.485 942.034 563.987 945.502 565.476C965.03 573.863 983.613 581.844 1002.49 590.407C1004.1 591.213 1006.12 594.037 1006.12 596.053C1006.39 601.9 1006.3 607.921 1006.22 614.234C1006.17 617.501 1006.12 620.847 1006.12 624.286C1004.75 623.677 1003.49 623.183 1002.31 622.717C1000.35 621.949 998.59 621.257 996.829 620.253L996.828 620.252C978.24 610.573 959.652 600.893 941.063 591.617C936.618 589.197 934.598 586.777 935.002 581.533C935.264 577.613 935.186 573.522 935.099 568.933Z" fill="#202124"/>
<path d="M1067.55 626.303C1069.16 628.723 1071.59 630.739 1071.99 633.159C1072.4 636.386 1070.78 640.016 1067.14 639.612C1065.12 639.612 1062.29 636.386 1062.29 634.369C1061.89 631.949 1063.91 629.126 1065.12 626.303C1065.53 626.706 1066.74 626.303 1067.55 626.303Z" fill="#202124"/>
<path d="M1042.9 621.865C1038.45 624.285 1036.03 626.705 1034.01 626.302C1031.99 625.899 1029.56 622.672 1029.16 620.655C1028.75 617.429 1031.58 615.412 1034.81 616.219C1037.64 616.622 1039.26 618.639 1042.9 621.865Z" fill="#202124"/>
<path fill-rule="evenodd" clip-rule="evenodd" d="M1016.79 891.441C1017.72 891.511 1018.74 891.587 1019.86 891.689C1019.86 886.849 1019.86 883.219 1020.27 879.993C1020.11 876.852 1019.83 873.65 1019.55 870.411C1019.1 865.331 1018.65 860.159 1018.65 854.987C1018.65 848.534 1015.42 845.307 1009.76 842.887C997.637 837.845 985.413 832.804 973.189 827.762C960.965 822.721 948.741 817.679 936.618 812.638C934.788 811.953 932.958 811.526 930.981 811.066C929.466 810.713 927.865 810.339 926.111 809.814C925.648 811.818 925.126 813.646 924.635 815.364C923.841 818.141 923.128 820.632 922.879 823.124C922.677 827.359 922.677 831.695 922.677 836.081C922.677 840.467 922.677 844.904 922.475 849.34C922.475 856.197 925.303 859.827 931.769 862.247C944.902 866.885 957.934 871.624 970.966 876.363C983.998 881.102 997.031 885.841 1010.16 890.479C1011.98 891.082 1014.01 891.235 1016.79 891.441ZM1009.25 856.034C1009.96 864.106 1010.67 872.179 1011.38 882.413C983.898 871.926 958.035 862.247 932.173 852.567V820.301C951.223 827.215 969.243 835.158 987.262 843.101C994.47 846.278 1001.68 849.455 1008.95 852.567C1009.05 853.727 1009.15 854.88 1009.25 856.034Z" fill="#202124"/>
<path d="M1068.35 896.934C1065.53 893.707 1062.7 891.287 1062.7 889.271C1062.7 887.254 1065.12 884.431 1067.14 883.221C1069.57 882.011 1072.8 885.641 1072.4 889.674C1072.4 891.691 1070.38 893.707 1068.35 896.934Z" fill="#202124"/>
<path d="M1042.9 881.606C1036.83 883.219 1033.2 881.606 1031.99 876.766C1031.18 873.943 1033.6 871.12 1037.24 871.523C1042.9 872.733 1042.9 877.17 1042.9 881.606Z" fill="#202124"/>
<path fill-rule="evenodd" clip-rule="evenodd" d="M1005.02 1019.16C1008.23 1020.13 1011.66 1021.17 1015.42 1022.37C1015.42 1019.23 1015.43 1016.19 1015.45 1013.22C1015.52 1001.72 1015.57 991.325 1014.61 980.421C1014.61 978.001 1011.38 974.371 1008.95 973.565C981.878 962.272 954.803 951.785 927.324 941.299C920.455 938.879 918.434 940.492 918.838 947.752C920.051 960.255 921.263 972.758 923.283 984.858C923.687 987.681 926.92 990.908 929.345 991.714C949.55 999.378 969.755 1007.04 989.96 1014.3C994.779 1016.07 999.599 1017.53 1005.02 1019.16ZM928.453 957.499C928.209 955.696 927.953 953.803 927.728 951.785C934.932 954.703 942.027 957.593 949.056 960.457C969.236 968.678 988.872 976.677 1008.95 984.455V1012.69C1006.12 1012.28 1003.7 1011.88 1001.68 1011.07C996.049 1008.97 990.454 1006.83 984.873 1004.69C971.224 999.468 957.66 994.278 943.892 989.698C933.79 986.471 928.537 981.631 929.345 970.338C929.637 966.261 929.086 962.184 928.453 957.499Z" fill="#202124"/>
<path d="M1077.24 1016.72C1077.24 1022.77 1075.22 1025.59 1070.78 1025.59C1067.55 1026 1065.12 1024.38 1064.72 1020.75C1064.31 1017.53 1068.76 1011.88 1071.99 1012.69C1074.42 1013.09 1076.03 1015.91 1077.24 1016.72Z" fill="#202124"/>
<path d="M1036.03 1015.11C1034.01 1011.07 1031.99 1009.06 1031.99 1006.64C1031.99 1005.02 1034.81 1002.6 1036.43 1001.8C1039.26 1000.99 1042.49 1005.43 1041.28 1008.25C1040.88 1010.27 1038.86 1011.88 1036.03 1015.11Z" fill="#202124"/>
<path fill-rule="evenodd" clip-rule="evenodd" d="M1009.25 765.535C1010.87 765.953 1012.64 766.408 1014.61 767.063C1014.66 766.511 1014.7 765.975 1014.75 765.453C1015.09 761.396 1015.37 758.179 1015.01 754.963C1014.96 754.27 1014.9 753.579 1014.84 752.89C1014.09 743.953 1013.37 735.314 1012.99 726.327C1012.99 719.874 1010.57 715.841 1004.1 713.018C990.135 707.188 976.327 701.039 962.477 694.872C954.29 691.227 946.088 687.575 937.83 683.978C937.157 683.709 936.483 683.396 935.81 683.082C934.463 682.455 933.116 681.827 931.769 681.558C926.112 680.348 922.879 682.768 923.283 688.415C923.388 691.131 923.519 693.821 923.65 696.49C924.024 704.125 924.391 711.596 924.091 719.067C924.091 726.327 926.516 730.361 933.385 733.184C950.017 740.053 966.445 747.328 982.814 754.577C989.513 757.543 996.202 760.505 1002.89 763.433C1004.81 764.392 1006.87 764.923 1009.25 765.535ZM932.676 702.367C932.628 700.062 932.577 697.592 932.577 694.868C952.235 702.779 970.898 710.443 988.957 717.858C993.913 719.893 998.825 721.909 1003.7 723.907C1004.91 734.394 1005.72 744.074 1006.53 755.367C1001.68 753.753 998.445 752.543 995.212 750.93C988.552 747.976 981.892 744.913 975.212 741.841C963.654 736.526 952.035 731.184 940.255 726.327C934.194 723.504 932.173 720.277 932.577 713.824C932.838 710.185 932.762 706.546 932.676 702.367Z" fill="#202124"/>
<path d="M1069.97 758.996C1071.18 761.013 1072.8 762.626 1074.01 765.046C1075.63 767.869 1075.22 770.692 1071.99 772.306C1067.95 773.516 1065.53 771.096 1065.12 767.869C1064.72 765.046 1066.33 762.223 1067.14 759.399C1067.95 758.996 1068.76 758.996 1069.97 758.996Z" fill="#202124"/>
<path d="M1041.68 750.93C1038.05 753.35 1035.62 755.366 1033.6 755.77C1030.37 756.173 1027.94 753.753 1028.75 750.526C1029.16 748.51 1031.99 745.283 1034.01 745.283C1035.62 745.283 1038.05 748.106 1041.68 750.93Z" fill="#202124"/>
<path fill-rule="evenodd" clip-rule="evenodd" d="M1151.19 323.003C1153.36 323.62 1155.52 324.119 1157.66 324.612C1161.12 325.41 1164.52 326.194 1167.76 327.44L1167.77 327.442L1167.77 327.443C1215.05 347.608 1262.32 367.773 1309.6 388.342C1327.58 396.206 1345.57 404.172 1363.55 412.138C1381.53 420.103 1399.51 428.069 1417.5 435.934L1423.15 438.757C1423.41 441.062 1423.71 443.409 1424.01 445.77L1424.01 445.78C1424.65 450.85 1425.3 455.989 1425.58 460.94C1430.83 574.274 1432.45 687.205 1432.85 800.539L1432.86 801.737L1432.86 801.777C1433.26 880.42 1433.66 959.458 1434.47 1038.1V1051.41C1437.3 1052.62 1439.72 1053.42 1442.14 1054.23L1442.14 1054.23L1442.15 1054.23C1486.19 1067.14 1509.23 1097.79 1516.5 1141.75C1520.54 1166.35 1519.33 1191.36 1518.12 1216.37C1518.12 1219.99 1517.85 1223.62 1517.53 1227.91V1227.91C1517.49 1228.43 1517.45 1228.96 1517.41 1229.49C1517.38 1229.95 1517.34 1230.41 1517.31 1230.89C1558.12 1246.62 1598.53 1262.34 1639.35 1278.48C1642.04 1275.25 1644.38 1272.38 1646.71 1269.51C1647.88 1268.08 1649.04 1266.65 1650.26 1265.17C1659.95 1253.47 1671.27 1243.39 1685.01 1236.94C1709.25 1225.24 1734.71 1230.48 1751.28 1251.86C1759.36 1262.34 1765.42 1274.04 1771.08 1285.74C1779.16 1301.87 1791.29 1311.95 1809.47 1313.16C1814.72 1313.57 1820.79 1313.16 1825.63 1311.55C1848.26 1304.29 1869.28 1309.53 1889.08 1320.42C1894.74 1323.65 1899.58 1325.26 1906.45 1323.65C1921 1320.02 1932.72 1326.47 1944.44 1335.75C1943.63 1337.16 1942.92 1338.57 1942.17 1340.08L1942.17 1340.09C1941.41 1341.6 1940.6 1343.21 1939.59 1345.03C1939.75 1345.26 1939.92 1345.5 1940.1 1345.74C1940.39 1346.1 1940.7 1346.47 1941 1346.84C1941.51 1347.45 1942.01 1348.05 1942.42 1348.66C1942.53 1348.92 1942.64 1349.2 1942.76 1349.47L1942.76 1349.49C1943.52 1351.3 1944.33 1353.26 1943.63 1354.3C1942.82 1355.51 1939.59 1356.32 1937.97 1355.51C1933.93 1353.9 1931.1 1353.09 1929.08 1357.93V1359.95C1929.64 1360.72 1930.4 1361.43 1931.16 1362.14C1933.18 1364.02 1935.18 1365.89 1933.12 1368.82C1930.89 1372.54 1928.51 1371.08 1926.06 1369.59C1924.53 1368.66 1922.97 1367.7 1921.41 1368.02C1919.79 1369.23 1918.17 1370.84 1916.56 1372.45C1916 1372.27 1915.45 1372.17 1914.93 1372.07L1914.93 1372.07C1914.32 1371.96 1913.76 1371.86 1913.32 1371.65C1902.01 1364.39 1893.52 1355.51 1890.69 1341.8C1890.29 1338.98 1887.87 1335.75 1885.44 1334.14C1868.47 1324.05 1850.69 1318 1830.89 1324.46C1805.03 1332.52 1772.29 1322.44 1757.34 1291.38C1752.9 1281.7 1747.64 1272.43 1741.18 1263.96C1726.63 1244.6 1707.64 1241.37 1687.03 1253.88C1674.91 1261.13 1665.61 1271.22 1656.32 1284.12C1658.44 1285 1660.49 1285.83 1662.47 1286.64L1662.49 1286.65C1666.91 1288.45 1671 1290.12 1674.91 1291.79C1705.65 1303.79 1736.45 1315.75 1767.26 1327.71L1767.29 1327.72C1820.3 1348.29 1873.36 1368.88 1926.26 1389.8C1969.49 1406.97 2012.6 1424.38 2055.65 1441.77L2055.68 1441.78C2091.5 1456.24 2127.28 1470.69 2163.06 1484.98C2183.26 1493.05 2203.47 1500.31 2224.88 1507.97C2227.3 1512.8 2225 1518.21 2222.76 1523.46C2222.38 1524.35 2222 1525.24 2221.65 1526.12C2207.91 1527.33 2196.6 1523.3 2184.88 1518.05C2162.9 1508.2 2140.18 1499.35 2117.49 1490.51L2117.49 1490.51C2111.39 1488.13 2105.29 1485.76 2099.21 1483.37C2038.19 1459.97 1977.17 1436.58 1916.15 1413.59C1914.01 1412.67 1911.87 1411.99 1909.9 1411.36C1909.27 1411.16 1908.66 1410.96 1908.07 1410.77L1907.89 1411.22C1904.43 1419.65 1904.28 1420.02 1895.54 1418.83C1894.62 1418.72 1893.69 1418.63 1892.76 1418.54C1887.16 1417.99 1881.57 1417.45 1877.76 1411.57C1882.13 1407.22 1887.23 1407.64 1893.08 1408.13C1895.88 1408.36 1898.86 1408.61 1902.01 1408.35C1898.47 1406.91 1895.19 1405.56 1892.09 1404.28C1885.6 1401.6 1879.86 1399.24 1874.13 1397.06C1844.83 1385.36 1815.43 1373.76 1786.03 1362.17C1756.63 1350.57 1727.24 1338.98 1697.94 1327.28L1697.48 1327.08C1691.99 1324.73 1686.85 1322.53 1680.56 1325.67C1677.82 1327.19 1673.94 1326.65 1670.12 1326.11C1668.86 1325.94 1667.62 1325.77 1666.42 1325.67C1664.4 1325.26 1661.17 1323.25 1660.76 1322.04C1660.36 1318.41 1663.19 1317.2 1666.42 1318C1667.23 1318.41 1668.44 1318 1669.65 1317.6C1659.55 1312.36 1649.45 1307.92 1636.52 1305.1C1636.77 1306.1 1636.94 1306.95 1637.09 1307.66C1637.4 1309.21 1637.58 1310.06 1638.13 1310.34C1640.96 1311.55 1644.19 1313.57 1642.17 1316.79C1640.96 1318.81 1637.32 1320.83 1634.9 1320.42C1626.01 1318.81 1620.35 1323.65 1614.7 1328.89C1610.65 1332.52 1606.21 1335.75 1601.76 1338.98C1602.17 1340.19 1602.57 1341.3 1602.98 1342.4C1603.38 1343.51 1603.78 1344.62 1604.19 1345.83C1603.62 1346.12 1603.09 1346.46 1602.61 1346.77C1601.71 1347.35 1600.93 1347.85 1600.15 1347.85C1593.75 1346.38 1587.36 1347 1580.96 1347.61C1576.85 1348.01 1572.74 1348.41 1568.63 1348.25C1559.76 1347.64 1551.12 1345.64 1542.53 1343.66C1539.78 1343.02 1537.03 1342.39 1534.28 1341.8C1533.07 1341.4 1531.86 1340.19 1531.05 1338.98C1526.36 1332.75 1521.85 1326.52 1517.18 1320.07C1514.59 1316.5 1511.96 1312.87 1509.23 1309.13C1507.19 1308.32 1504.78 1308.1 1502.15 1307.85C1496.96 1307.38 1490.88 1306.82 1484.98 1301.47C1487.41 1300.86 1489.62 1300.33 1491.71 1299.82L1491.72 1299.82C1496.58 1298.65 1500.79 1297.63 1505.59 1296.22C1505.18 1294.41 1504.68 1292.59 1504.17 1290.78C1503.67 1288.96 1503.16 1287.15 1502.76 1285.33C1500.42 1285.02 1498.06 1284.98 1495.72 1284.94H1495.72C1489.15 1284.83 1482.77 1284.72 1477.71 1278.48C1483.32 1274.43 1488.94 1274.47 1495.11 1274.51C1496.93 1274.52 1498.8 1274.54 1500.74 1274.44C1500.55 1270.67 1500.27 1266.99 1499.99 1263.23L1499.99 1263.23C1499.67 1258.95 1499.34 1254.57 1499.12 1249.84C1491.51 1246.8 1483.96 1243.82 1476.44 1240.85C1464 1235.94 1451.66 1231.07 1439.32 1226.05C1433.74 1234.9 1425.14 1238.68 1416.31 1242.56C1411.07 1244.86 1405.74 1247.19 1400.93 1250.65C1401.6 1250.99 1402.28 1251.25 1402.92 1251.51C1403.82 1251.86 1404.67 1252.2 1405.37 1252.67C1406.56 1253.26 1407.52 1253.85 1408.75 1254.59C1409.2 1254.87 1409.68 1255.16 1410.22 1255.49C1406.18 1262.75 1398.91 1261.54 1394.46 1259.52C1387.19 1256.3 1381.93 1259.12 1376.28 1262.34C1371.43 1265.17 1366.58 1267.99 1362.13 1272.83H1369.41C1372.24 1272.83 1375.87 1272.83 1375.87 1276.86C1375.87 1280.49 1372.64 1281.7 1369.81 1281.3C1363.75 1280.09 1357.69 1278.88 1349.61 1276.86C1347.25 1277.91 1344.2 1279.47 1340.81 1281.2L1340.81 1281.21C1338.98 1282.14 1337.04 1283.13 1335.06 1284.12C1277.27 1313.97 1219.89 1343.82 1162.11 1374.07C1156.45 1376.89 1152 1378.1 1145.54 1375.68C1085.74 1350.68 1025.53 1326.07 965.325 1301.47L965.317 1301.47L965.309 1301.47C934.6 1288.56 903.89 1275.25 873.181 1261.94L873.178 1261.94L873.175 1261.94C872.668 1261.73 872.156 1261.52 871.643 1261.32C867.249 1259.54 862.734 1257.72 859.84 1252.67C866.095 1250.09 871.01 1251.54 876.11 1253.03L876.118 1253.04C876.616 1253.18 877.116 1253.33 877.62 1253.47C917.064 1265.96 954.728 1283.07 992.284 1300.14L992.284 1300.14C994.742 1301.25 997.2 1302.37 999.658 1303.48C1034 1319.18 1068.85 1334.11 1103.81 1349.09C1112.86 1352.97 1121.93 1356.86 1130.99 1360.76C1133.41 1361.56 1135.84 1362.37 1139.07 1363.18C1139.11 1362.4 1139.15 1361.63 1139.18 1360.87C1139.55 1353.31 1139.88 1346.38 1139.88 1339.78C1139.88 1288.36 1139.78 1236.83 1139.68 1185.31C1139.58 1133.79 1139.48 1082.26 1139.48 1030.84C1139.48 1016.15 1139.49 1001.47 1139.51 986.805V986.797C1139.57 928.189 1139.64 869.736 1138.67 811.025C1137.86 768.541 1136.33 726.057 1134.81 683.573C1134.04 662.332 1133.28 641.091 1132.61 619.85C1132.34 611.372 1132.42 603.068 1132.51 594.253V594.252C1132.56 589.647 1132.61 584.903 1132.61 579.92C1044.51 537.168 953.59 496.432 862.264 457.31C862.534 462.284 862.848 467.259 863.162 472.233C863.791 482.182 864.419 492.13 864.689 502.079C865.194 522.246 865.724 542.414 866.255 562.581C867.846 623.078 869.437 683.576 870.346 744.073C871.559 839.469 872.335 934.72 873.111 1030V1030L873.112 1030.02C873.628 1093.45 874.145 1156.89 874.791 1220.4C874.791 1227.26 874.791 1234.52 874.387 1241.37C873.983 1248.23 872.771 1249.04 864.689 1248.63L864.688 1248.62C863.072 1165.94 861.456 1083.26 859.84 999.378C851.403 995.893 842.966 992.618 834.68 989.401L834.679 989.401C831.456 988.149 828.256 986.907 825.087 985.664C777.201 966.305 729.417 946.945 681.632 927.586L681.419 927.499C633.705 908.169 585.992 888.838 538.177 869.507C530.095 866.281 522.013 862.247 514.335 858.214C511.621 856.736 509.207 854.957 506.635 853.061L506.635 853.061C504.995 851.853 503.292 850.597 501.404 849.341C506.577 844.547 511.412 845.485 515.6 846.297L515.601 846.298C515.993 846.374 516.379 846.449 516.76 846.518C528.479 849.341 540.198 852.568 551.512 856.601C606.47 876.767 661.427 897.337 716.385 918.309C747.674 930.059 778.963 942.283 810.071 954.436L810.076 954.438L810.079 954.439C819.545 958.137 828.995 961.829 838.422 965.498C844.888 967.918 850.949 970.338 858.627 973.565V959.852C857.213 892.497 855.9 825.041 854.586 757.585C853.273 690.129 851.96 622.673 850.545 555.318C850.411 547.252 850.321 539.186 850.231 531.119C850.051 514.986 849.872 498.853 849.333 482.719C849.333 478.262 848.991 473.805 848.641 469.237L848.641 469.235C848.453 466.777 848.262 464.286 848.121 461.747C846.908 449.647 848.929 445.614 860.244 440.37C874.907 433.187 889.571 425.984 904.239 418.779C955.459 393.619 1006.73 368.432 1058.25 343.976C1076.24 335.321 1094.73 328.45 1113.33 321.54L1113.34 321.538C1118.14 319.754 1122.95 317.967 1127.76 316.147C1134.56 313.751 1142.55 313.332 1150.15 312.932L1150.39 312.92C1151.83 312.92 1153.27 313.949 1154.72 314.978L1154.72 314.979C1155.29 315.39 1155.87 315.801 1156.45 316.147C1155.91 316.684 1155.42 317.312 1154.92 317.939C1153.93 319.194 1152.95 320.449 1151.6 320.986C1147.2 322.919 1142.72 324.622 1138.24 326.328L1138.23 326.329C1132.42 328.54 1126.59 330.758 1120.89 333.489C1103.78 341.287 1086.67 349.13 1069.57 356.972C1035.35 372.657 1001.14 388.342 966.926 403.668C960.258 406.693 953.388 409.415 946.519 412.138C939.649 414.86 932.779 417.583 926.112 420.607C915.493 425.402 905.032 430.512 894.532 435.642C888.249 438.711 881.953 441.787 875.599 444.807C874.739 445.236 873.993 445.894 873.057 446.719C872.235 447.445 871.265 448.3 869.942 449.243C872.884 450.502 875.632 451.663 878.269 452.778C883.24 454.879 887.819 456.815 892.572 458.923C902.737 462.96 912.903 466.938 923.061 470.912L923.068 470.915L923.068 470.915C950.459 481.633 977.793 492.328 1004.91 504.096C1024.85 512.7 1044.42 522.379 1064 532.059L1064 532.059L1064 532.061C1073.79 536.9 1083.58 541.74 1093.41 546.445C1097.18 548.192 1101 549.895 1104.81 551.598C1112.45 555.004 1120.08 558.41 1127.35 562.174C1133.01 564.997 1137.86 564.594 1143.11 561.771C1164.65 548.647 1187.94 539.003 1211.22 529.359C1221.57 525.073 1231.92 520.787 1242.12 516.195C1284.54 496.839 1326.96 477.887 1369.38 458.934L1369.39 458.933L1369.41 458.923C1380.32 454.083 1391.23 449.243 1403.76 443.597C1401.53 442.589 1399.71 441.681 1398.1 440.874L1398.1 440.874C1396.48 440.068 1395.07 439.362 1393.65 438.757C1319.3 405.684 1244.95 372.612 1170.19 339.539C1169.23 339.06 1168.25 338.58 1167.27 338.097L1167.26 338.094C1163.28 336.142 1159.2 334.138 1155.64 331.876C1154.12 330.964 1152.82 329.594 1151.59 328.283L1151.59 328.283C1151.18 327.855 1150.78 327.433 1150.39 327.036C1150.39 325.423 1150.79 324.213 1151.19 323.003ZM1530.64 1307.52L1530.24 1307.11C1538.32 1327.28 1563.78 1337.36 1585.6 1328.09C1598.98 1322.52 1608.94 1312.53 1619.57 1301.86C1620.5 1300.93 1621.43 1299.99 1622.37 1299.05C1618.11 1297.38 1614.08 1295.76 1610.19 1294.21C1603.76 1291.63 1597.71 1289.21 1591.66 1286.95C1585.9 1294.82 1579.68 1293.37 1573.01 1291.82C1570.79 1291.31 1568.52 1290.78 1566.2 1290.58C1569.17 1286.01 1572.85 1285.56 1577.01 1285.05C1579.09 1284.8 1581.29 1284.53 1583.58 1283.72C1573.95 1279.84 1564.66 1276.17 1555.47 1272.54L1555.44 1272.53C1542.67 1267.48 1530.06 1262.49 1516.9 1257.1C1517.11 1259.32 1517.11 1261.24 1517.11 1262.9C1517.11 1264.56 1517.11 1265.97 1517.31 1267.18C1517.75 1269.37 1518.15 1271.59 1518.57 1273.82L1518.57 1273.82C1519.67 1279.81 1520.79 1285.91 1522.56 1291.79C1523.81 1296.47 1526.28 1300.43 1528.64 1304.23C1529.32 1305.33 1530 1306.42 1530.64 1307.52ZM1498.79 1222.12C1498.53 1222.76 1498.22 1223.51 1497.91 1224.43C1495.03 1223.17 1492.23 1222.08 1489.47 1221C1486.04 1219.65 1482.68 1218.33 1479.32 1216.77C1473.06 1214.35 1466.7 1211.93 1460.33 1209.51C1453.97 1207.09 1447.6 1204.67 1441.34 1202.25C1437.3 1200.64 1435.28 1198.62 1435.28 1194.18C1435.28 1153.85 1434.87 1113.52 1434.47 1073.19C1434.47 1073.19 1434.87 1072.78 1435.28 1071.57C1435.99 1071.72 1436.81 1071.81 1437.66 1071.9C1439.2 1072.08 1440.84 1072.26 1442.15 1072.78C1474.47 1084.08 1491.85 1107.87 1497.91 1140.54C1502.76 1166.76 1501.14 1193.38 1499.53 1219.59C1499.53 1220.34 1499.22 1221.09 1498.79 1222.12Z" fill="#202124"/>
<path d="M2030.92 1566.05C2030.11 1561.61 2026.07 1557.18 2030.92 1553.14C2036.57 1548.3 2040.21 1554.35 2043.44 1556.37C2046.68 1553.14 2049.1 1548.71 2051.93 1548.3C2057.18 1547.9 2060.01 1552.74 2062.03 1557.18C2066.88 1568.47 2071.33 1580.17 2075.77 1591.86C2076.98 1594.69 2077.39 1597.51 2077.79 1600.33C2078.2 1604.77 2078.2 1609.61 2074.16 1612.43C2069.71 1615.66 2064.86 1614.45 2060.82 1612.03C2046.27 1603.56 2035.77 1590.65 2024.45 1578.55C2020.41 1573.31 2022.43 1570.49 2030.92 1566.05Z" fill="#202124"/>
<path d="M1876.96 1552.34C1882.61 1551.53 1886.65 1550.72 1891.1 1549.92C1889.89 1547.09 1888.67 1544.27 1888.27 1541.45C1887.06 1536.2 1891.1 1532.98 1896.35 1534.99C1899.18 1536.2 1901.61 1538.62 1904.43 1540.64C1904.84 1540.24 1906.05 1540.24 1906.05 1539.83C1906.86 1536.2 1906.45 1530.56 1911.3 1530.15C1914.54 1530.15 1918.58 1533.78 1920.19 1536.61C1927.87 1549.11 1931.91 1563.22 1934.34 1577.74C1935.95 1587.42 1929.08 1596.3 1916.56 1590.25C1901.61 1582.99 1890.29 1572.1 1880.19 1559.19C1878.98 1557.98 1878.57 1555.97 1876.96 1552.34Z" fill="#202124"/>
<path d="M973.39 1576.54C966.925 1577.34 962.076 1577.75 956.822 1578.15C953.59 1568.47 961.672 1567.26 966.521 1563.23C964.096 1561.21 961.672 1559.19 959.247 1557.18C959.651 1555.97 959.651 1554.76 960.055 1553.95C961.268 1552.74 962.48 1550.72 964.096 1550.32C978.24 1546.29 992.383 1539.83 1007.74 1540.64C1009.36 1540.64 1010.57 1540.64 1012.18 1541.04C1024.31 1543.06 1028.35 1551.53 1020.67 1561.61C1010.57 1574.92 996.02 1582.18 981.472 1588.63C977.431 1590.25 974.199 1588.63 973.795 1583.79C973.39 1580.97 973.39 1578.96 973.39 1576.54Z" fill="#202124"/>
<path d="M1356.48 1555.56C1348.39 1552.74 1343.54 1563.63 1335.06 1556.77C1338.7 1553.14 1341.93 1549.92 1345.16 1546.69C1344.76 1545.48 1344.76 1544.67 1344.35 1544.27C1335.06 1537.82 1334.25 1532.57 1344.35 1528.54C1358.9 1522.89 1373.45 1516.44 1389.61 1518.05C1391.63 1518.46 1394.06 1518.46 1396.08 1519.26C1404.16 1521.68 1405.78 1525.72 1401.73 1533.38C1400.12 1536.61 1397.69 1539.43 1394.87 1541.85C1385.57 1549.92 1375.87 1557.98 1366.58 1566.05C1365.37 1566.85 1364.56 1568.47 1363.35 1568.87C1360.92 1569.68 1358.09 1570.08 1355.26 1570.48C1355.26 1568.06 1355.26 1565.64 1355.26 1563.63C1355.67 1560.4 1356.07 1557.98 1356.48 1555.56Z" fill="#202124"/>
<path d="M2081.43 1723.35C2083.05 1718.1 2084.26 1714.07 2085.47 1710.44C2091.13 1708.83 2093.96 1712.46 2095.17 1716.09C2099.21 1726.98 2103.25 1737.86 2106.48 1749.16C2109.31 1759.64 2104.87 1764.89 2091.94 1764.89C2087.49 1764.89 2082.24 1762.87 2079 1760.05C2070.92 1753.19 2063.65 1745.53 2056.37 1737.86C2054.76 1735.85 2054.76 1731.81 2054.35 1728.99C2057.59 1728.59 2060.42 1728.19 2063.65 1728.19C2064.46 1728.19 2064.86 1728.19 2066.88 1728.19C2065.27 1724.56 2064.05 1720.93 2062.84 1717.3C2061.63 1713.67 2062.03 1710.84 2065.67 1708.83C2068.9 1706.81 2071.33 1709.23 2072.94 1711.65C2075.37 1714.88 2078.2 1718.91 2081.43 1723.35Z" fill="#202124"/>
<path d="M1234.44 1531.36C1234.44 1525.72 1234.44 1522.49 1234.44 1518.86C1230.4 1518.46 1226.76 1518.86 1223.53 1518.05C1218.27 1517.25 1217.06 1513.62 1220.3 1509.58C1222.32 1507.57 1224.34 1505.95 1226.76 1503.53C1223.12 1501.11 1220.3 1499.1 1217.47 1497.08C1218.27 1495.87 1218.68 1494.26 1219.08 1493.85C1233.23 1489.01 1247.37 1484.58 1261.51 1479.74C1262.73 1479.33 1263.53 1478.93 1264.75 1478.93C1270.4 1479.33 1276.47 1478.93 1279.29 1484.58C1282.53 1490.22 1279.7 1495.47 1276.47 1499.9C1273.64 1503.53 1270.4 1507.16 1266.77 1510.39C1259.49 1516.04 1252.22 1521.68 1244.54 1526.52C1242.12 1528.54 1238.88 1529.35 1234.44 1531.36Z" fill="#202124"/>
<path d="M1464.77 1464.01C1458.71 1459.97 1453.86 1471.67 1447.4 1463.6C1451.04 1460.38 1454.27 1457.15 1458.31 1453.12C1454.27 1451.91 1451.04 1451.1 1447.8 1449.89C1446.99 1445.05 1449.42 1442.63 1452.65 1441.02C1467.6 1433.35 1483.77 1430.93 1500.34 1430.13C1507.2 1429.72 1511.25 1435.37 1508.82 1442.23C1506.8 1447.87 1503.57 1453.92 1499.12 1457.55C1491.04 1464.41 1482.15 1470.06 1473.26 1475.7C1470.84 1477.32 1467.2 1476.51 1464.37 1476.51C1464.37 1473.28 1463.97 1470.46 1463.97 1467.23C1463.97 1466.43 1464.77 1465.22 1464.77 1464.01Z" fill="#202124"/>
<path d="M1113.61 1597.91C1109.17 1597.91 1102.7 1602.35 1100.28 1595.49C1098.26 1589.84 1104.72 1587.83 1108.36 1585.41C1109.17 1585 1109.98 1584.2 1111.19 1583.39C1108.36 1581.37 1105.94 1579.36 1102.3 1576.94C1104.72 1575.32 1105.94 1573.31 1107.96 1572.9C1118.46 1569.27 1128.57 1565.64 1139.07 1562.82C1144.32 1561.61 1149.98 1561.61 1155.24 1562.01C1164.93 1562.82 1167.76 1568.47 1162.11 1576.94C1160.49 1579.36 1158.47 1581.78 1156.45 1583.39C1146.35 1590.65 1136.65 1598.31 1125.74 1604.36C1117.65 1609.61 1115.63 1608.4 1113.61 1597.91Z" fill="#202124"/>
<path d="M1751.28 1484.58C1752.9 1479.74 1753.71 1476.51 1754.51 1474.09C1748.86 1471.67 1743.6 1469.25 1737.95 1466.83C1740.37 1457.15 1749.66 1459.97 1754.51 1455.54C1752.9 1453.12 1750.88 1450.7 1748.86 1447.87C1754.51 1442.23 1760.57 1441.42 1767.44 1443.44C1776.33 1445.86 1784.82 1448.28 1793.71 1451.1C1801.39 1453.52 1803.81 1461.18 1797.75 1466.02C1787.25 1474.49 1775.93 1482.16 1762.6 1485.38C1759.36 1485.79 1755.73 1484.98 1751.28 1484.58Z" fill="#202124"/>
<path d="M876.003 1681.4C875.195 1677.77 874.386 1674.54 873.982 1671.32C869.941 1670.51 866.305 1669.7 862.668 1669.3C861.455 1660.43 869.537 1660.43 873.174 1655.99C871.154 1653.57 869.537 1651.15 866.709 1647.12C882.873 1641.87 898.228 1637.44 914.392 1641.47C924.495 1643.89 926.515 1650.34 919.241 1658.01C915.605 1662.04 911.159 1665.27 906.31 1668.09C897.016 1673.74 887.318 1678.98 876.003 1681.4Z" fill="#202124"/>
<path d="M745.075 1624.53C739.822 1625.34 734.973 1625.74 730.527 1626.55C726.486 1616.06 735.781 1614.85 739.822 1609.61C737.397 1607.99 734.973 1606.38 732.548 1604.77C732.952 1603.96 732.952 1602.35 733.76 1601.94C747.5 1594.28 762.047 1589.44 777.403 1589.44C787.505 1589.44 790.738 1595.89 784.677 1603.56C779.827 1610.01 773.766 1615.66 767.705 1620.9C762.047 1625.74 755.582 1630.18 747.904 1635.42C747.095 1631.39 746.287 1628.16 745.075 1624.53Z" fill="#202124"/>
<path d="M614.956 1725.36C614.148 1722.13 613.743 1719.31 612.935 1716.89C607.682 1715.68 601.62 1721.33 596.367 1714.07C599.6 1710.44 603.237 1706.81 607.278 1702.77C603.641 1700.76 600.812 1699.15 596.771 1696.32C610.511 1686.64 623.846 1679.79 640.01 1680.19C651.729 1680.59 655.366 1687.85 650.112 1697.94C644.859 1708.02 630.311 1719.71 614.956 1725.36Z" fill="#202124"/>
<path d="M1604.19 1417.63C1603.78 1415.21 1602.98 1413.19 1602.17 1410.37C1606.61 1406.74 1612.27 1406.74 1616.72 1408.35C1627.22 1411.98 1637.73 1416.82 1647.83 1421.66C1653.49 1424.48 1653.89 1428.52 1649.45 1431.74C1635.3 1442.23 1620.35 1450.29 1601.76 1445.45C1600.96 1445.45 1600.55 1445.05 1599.74 1444.24C1599.34 1443.84 1598.93 1443.03 1597.72 1441.42C1601.76 1438.19 1605.8 1434.97 1610.65 1431.34C1602.98 1428.92 1594.49 1430.94 1589.64 1424.08C1592.07 1417.63 1599.34 1420.85 1604.19 1417.63Z" fill="#202124"/>
<path d="M1708.04 1438.19C1720.16 1430.13 1729.86 1434.16 1739.56 1436.58C1740.77 1436.98 1742.39 1440.21 1741.99 1441.82C1741.58 1443.44 1738.75 1445.45 1737.54 1445.45C1727.84 1444.24 1718.55 1443.44 1708.04 1438.19Z" fill="#202124"/>
<path d="M1619.54 1345.43C1621.57 1344.62 1623.18 1343.01 1625.2 1343.01C1633.69 1343.82 1641.77 1344.62 1650.26 1346.24C1651.87 1346.64 1653.09 1349.46 1654.7 1351.48C1652.68 1352.69 1650.66 1355.51 1649.04 1355.11C1638.94 1354.3 1629.24 1351.48 1619.54 1348.66C1619.54 1347.45 1619.54 1346.64 1619.54 1345.43Z" fill="#202124"/>
<path d="M1916.56 1440.61C1925.04 1435.37 1934.34 1436.98 1943.23 1436.98C1944.44 1436.98 1946.86 1439.81 1947.27 1441.42C1947.27 1443.03 1945.25 1445.05 1944.04 1446.66C1943.63 1447.07 1942.82 1447.47 1942.01 1447.47C1933.12 1447.87 1924.64 1446.66 1916.56 1440.61Z" fill="#202124"/>
<path d="M1789.27 1424.48C1792.09 1422.87 1793.71 1421.66 1795.33 1421.66C1803 1421.66 1810.68 1421.66 1817.96 1422.06C1821.19 1422.46 1824.83 1424.88 1823.21 1428.51C1822.4 1430.53 1818.36 1432.55 1816.74 1432.14C1807.85 1430.53 1798.16 1430.93 1789.27 1424.48Z" fill="#202124"/>
<path d="M1817.96 1457.55C1817.96 1455.54 1817.96 1455.13 1818.36 1454.73C1823.21 1451.5 1843.42 1451.1 1847.46 1454.73C1848.67 1455.54 1849.48 1458.36 1849.07 1459.57C1848.26 1461.18 1845.84 1462.8 1844.22 1462.8C1834.93 1463.2 1825.63 1462.39 1817.96 1457.55Z" fill="#202124"/>
<path d="M1525.39 1385.36C1530.24 1383.75 1533.47 1382.13 1536.7 1382.13C1541.96 1382.13 1547.62 1382.94 1552.87 1384.15C1554.08 1384.55 1555.29 1386.97 1555.29 1388.18C1555.29 1389.8 1553.68 1391.41 1552.46 1392.22C1546.4 1395.85 1533.07 1393.02 1525.39 1385.36Z" fill="#202124"/>
<path d="M1964.24 1466.02C1972.32 1465.22 1980.4 1464.01 1988.89 1463.6C1990.91 1463.6 1994.14 1464.81 1995.36 1466.43C1997.78 1469.25 1996.57 1472.88 1993.34 1473.28C1983.23 1475.3 1973.13 1474.49 1963.84 1469.65C1964.24 1468.44 1964.24 1467.23 1964.24 1466.02Z" fill="#202124"/>
<path d="M1708.85 1408.35C1714.1 1409.16 1719.76 1409.16 1725.01 1410.77C1727.03 1411.17 1728.65 1414.4 1730.27 1416.42C1728.25 1418.03 1725.82 1421.26 1724.21 1421.26C1717.34 1420.45 1710.87 1418.43 1704.4 1416.42C1703.19 1416.01 1701.98 1413.19 1701.58 1411.17C1701.58 1410.37 1704 1409.16 1705.62 1408.35C1706.43 1407.95 1707.64 1408.35 1708.85 1408.35Z" fill="#202124"/>
<path d="M1436.08 1299.05C1445.38 1295.01 1453.46 1295.42 1461.54 1297.03C1462.75 1297.43 1464.77 1299.85 1464.37 1301.06C1463.97 1303.08 1462.75 1305.1 1461.14 1305.9C1455.48 1309.13 1442.55 1305.9 1436.08 1299.05Z" fill="#202124"/>
<path d="M1836.14 1429.72C1844.22 1425.69 1852.71 1426.5 1860.79 1426.9C1862.41 1426.9 1864.43 1430.53 1866.04 1432.55C1864.02 1434.16 1861.6 1436.98 1859.58 1436.98C1851.09 1436.98 1843.01 1435.37 1836.14 1429.72Z" fill="#202124"/>
<path d="M1382.34 1279.69C1392.85 1274.85 1401.74 1276.46 1410.22 1277.27C1411.43 1277.27 1413.45 1281.3 1413.05 1283.32C1412.65 1284.93 1409.41 1287.75 1407.8 1287.35C1399.72 1286.95 1391.23 1286.14 1382.34 1279.69Z" fill="#202124"/>
<path d="M1662.38 1430.53C1671.67 1426.9 1680.97 1427.71 1689.86 1429.32C1691.47 1429.72 1693.9 1432.95 1693.49 1433.76C1692.69 1435.77 1690.26 1438.6 1688.65 1438.19C1679.76 1437.39 1670.06 1436.98 1662.38 1430.53Z" fill="#202124"/>
<path d="M1424.37 1406.74C1434.06 1401.49 1444.17 1402.7 1453.86 1404.72C1455.08 1405.12 1456.29 1407.95 1455.88 1409.16C1455.88 1410.37 1453.86 1412.38 1452.25 1412.79C1442.95 1413.19 1433.26 1412.79 1424.37 1406.74Z" fill="#202124"/>
<path d="M1867.66 1463.2C1876.15 1463.6 1884.23 1463.6 1892.31 1464.81C1894.33 1465.22 1895.95 1468.44 1897.97 1470.06C1895.54 1471.27 1893.12 1473.69 1891.1 1473.69C1884.63 1473.28 1878.17 1471.67 1871.7 1470.06C1869.68 1469.65 1868.06 1467.64 1866.45 1466.02C1866.85 1465.22 1867.26 1464.01 1867.66 1463.2Z" fill="#202124"/>
<path d="M1431.23 1279.28C1440.93 1273.24 1449.42 1275.25 1457.5 1276.86C1458.71 1277.27 1460.73 1280.09 1460.33 1282.11C1460.33 1283.72 1457.9 1286.54 1456.69 1286.54C1448.21 1286.95 1439.72 1285.74 1431.23 1279.28Z" fill="#202124"/>
<path d="M1251.81 1332.93C1258.28 1332.93 1264.75 1332.52 1271.21 1332.52C1274.85 1332.52 1277.68 1335.35 1276.46 1338.98C1275.66 1340.99 1272.42 1343.41 1270 1343.41C1265.15 1343.41 1260.7 1342.61 1255.86 1341.4C1253.84 1340.59 1252.22 1338.17 1250.2 1336.15C1251.01 1335.35 1251.41 1334.14 1251.81 1332.93Z" fill="#202124"/>
<path d="M1784.42 1392.62C1793.31 1393.02 1800.58 1393.02 1807.45 1393.83C1809.07 1393.83 1811.09 1396.25 1811.49 1398.27C1811.9 1399.48 1810.68 1402.7 1809.88 1402.7C1805.83 1403.11 1801.79 1403.51 1798.16 1402.7C1793.31 1401.49 1786.84 1402.3 1784.42 1392.62Z" fill="#202124"/>
<path d="M1569.84 1393.02C1578.33 1388.59 1587.22 1389.8 1595.7 1392.21C1596.92 1392.62 1597.72 1395.44 1597.72 1396.65C1597.72 1398.26 1595.7 1400.28 1594.49 1400.28C1585.6 1400.68 1577.11 1399.07 1569.84 1393.02Z" fill="#202124"/>
<path d="M1432.45 1253.47C1435.68 1253.88 1438.91 1253.47 1441.34 1254.68C1442.95 1255.49 1444.97 1258.31 1444.97 1260.33C1444.97 1261.54 1442.55 1264.77 1440.93 1264.77C1434.87 1264.36 1428.81 1263.96 1422.75 1262.75C1419.52 1261.94 1419.52 1256.3 1423.15 1255.09C1426.39 1253.88 1429.62 1253.88 1432.45 1253.47Z" fill="#202124"/>
<path d="M1365.37 1303.89C1355.67 1305.9 1345.57 1304.69 1333.85 1301.47C1336.68 1299.05 1338.29 1296.63 1339.91 1296.63C1347.59 1296.22 1355.26 1296.63 1362.54 1297.43C1366.17 1297.43 1367.39 1300.26 1365.37 1303.89Z" fill="#202124"/>
<path d="M1747.24 1418.03C1748.45 1417.22 1749.66 1416.01 1750.88 1416.01C1757.75 1416.01 1764.62 1416.42 1771.49 1417.22C1773.1 1417.22 1775.12 1419.64 1775.53 1421.25C1775.93 1422.06 1774.31 1424.48 1772.7 1425.29C1766.64 1428.51 1753.3 1424.48 1747.24 1418.03Z" fill="#202124"/>
<path d="M1378.3 1326.07C1385.17 1321.63 1393.25 1322.04 1400.93 1321.23C1404.16 1320.83 1406.99 1323.25 1406.18 1326.88C1405.78 1328.89 1402.95 1331.31 1400.93 1331.31C1393.25 1330.91 1385.98 1330.1 1378.3 1329.3C1378.3 1327.68 1378.3 1326.88 1378.3 1326.07Z" fill="#202124"/>
<path d="M1290.61 1320.42C1293.84 1318.41 1295.46 1316.79 1297.07 1316.39C1303.54 1315.99 1310.01 1315.58 1316.47 1315.58C1318.09 1315.58 1320.11 1318.81 1320.92 1320.83C1321.32 1321.63 1318.49 1324.86 1316.87 1324.86C1308.79 1325.67 1300.31 1324.86 1290.61 1320.42Z" fill="#202124"/>
<path d="M1691.47 1386.57C1694.3 1384.15 1695.51 1382.94 1696.32 1382.94C1703.6 1382.54 1710.87 1382.54 1718.14 1382.94C1719.76 1382.94 1721.38 1385.36 1722.59 1386.57C1720.97 1388.18 1719.36 1390.6 1717.74 1391.01C1709.66 1391.01 1701.58 1389.8 1691.47 1386.57Z" fill="#202124"/>
<path d="M1502.36 1415.61C1493.47 1420.85 1481.75 1419.64 1472.05 1411.98C1474.07 1410.77 1475.69 1409.15 1477.3 1409.56C1495.08 1409.96 1496.29 1410.36 1502.36 1415.61Z" fill="#202124"/>
<path d="M1282.93 1384.95C1293.84 1380.11 1306.77 1381.73 1312.03 1388.18C1304.35 1393.42 1294.25 1392.62 1282.93 1384.95Z" fill="#202124"/>
<path d="M1242.12 1379.31C1244.54 1374.87 1248.58 1375.28 1252.62 1375.28C1257.47 1375.68 1261.92 1376.49 1266.36 1377.7C1267.57 1378.1 1268.79 1380.92 1268.38 1382.13C1267.98 1383.34 1266.36 1384.95 1264.75 1385.76C1261.11 1386.97 1247.37 1382.94 1242.12 1379.31Z" fill="#202124"/>
<path d="M1447.8 1355.51C1455.88 1351.08 1463.97 1352.29 1472.05 1354.3C1473.26 1354.71 1474.88 1357.13 1474.47 1358.34C1474.47 1359.55 1472.45 1361.97 1471.24 1361.97C1463.16 1363.18 1454.67 1361.56 1447.8 1355.51Z" fill="#202124"/>
<path d="M1391.23 1295.82C1398.91 1296.63 1406.58 1297.03 1413.86 1298.24C1415.47 1298.64 1418.3 1301.47 1417.9 1302.27C1417.09 1304.29 1415.07 1307.11 1413.45 1307.11C1404.16 1308.32 1396.48 1305.1 1391.23 1295.82Z" fill="#202124"/>
<path d="M1569.84 1365.6C1579.54 1362.37 1587.62 1365.6 1595.7 1366.4C1596.92 1366.4 1598.13 1368.82 1598.53 1370.44C1598.53 1371.24 1597.32 1373.26 1596.11 1373.66C1591.26 1376.08 1575.5 1371.65 1569.84 1365.6Z" fill="#202124"/>
<path d="M1828.87 1401.09C1836.95 1397.86 1844.63 1399.88 1852.3 1401.9C1853.52 1402.3 1854.73 1404.72 1854.73 1406.33C1854.73 1407.54 1852.71 1409.56 1851.5 1409.96C1846.24 1411.98 1833.72 1407.14 1828.87 1401.09Z" fill="#202124"/>
<path d="M1613.48 1397.46C1619.95 1392.62 1627.22 1393.43 1634.09 1395.85C1638.13 1397.06 1637.73 1402.3 1634.09 1404.72C1628.44 1407.95 1617.52 1404.72 1613.48 1397.46Z" fill="#202124"/>
<path d="M1360.92 1398.67C1347.99 1399.88 1337.48 1397.86 1329.81 1393.02C1337.48 1388.59 1345.16 1390.6 1352.03 1391.01C1356.48 1391.01 1356.48 1391.41 1360.92 1398.67Z" fill="#202124"/>
<path d="M1524.58 1414.4C1532.26 1414.8 1539.53 1414.8 1547.21 1416.01C1548.83 1416.42 1550.04 1419.24 1551.66 1421.25C1550.04 1422.46 1548.02 1424.08 1546.4 1424.08C1540.34 1423.67 1534.28 1422.87 1528.22 1421.25C1526.6 1420.85 1525.39 1418.84 1523.77 1417.63C1524.18 1416.42 1524.18 1415.61 1524.58 1414.4Z" fill="#202124"/>
<path d="M1463.16 1261.54C1472.05 1253.87 1479.73 1255.49 1487.4 1256.7C1488.62 1257.1 1490.23 1260.33 1489.83 1261.94C1489.42 1263.55 1487.4 1265.57 1485.79 1265.97C1478.11 1267.18 1471.64 1265.17 1463.16 1261.54Z" fill="#202124"/>
<path d="M1450.63 1377.69C1458.71 1374.06 1467.2 1375.27 1475.28 1375.68C1476.49 1375.68 1477.71 1378.5 1479.32 1380.11C1477.71 1381.32 1476.09 1383.34 1474.47 1383.74C1466.39 1384.15 1458.31 1382.53 1450.63 1377.69Z" fill="#202124"/>
<path d="M1329.81 1366.81C1332.23 1366 1333.85 1364.79 1335.06 1364.79C1341.12 1364.39 1347.59 1363.98 1353.65 1363.98C1356.88 1363.98 1360.11 1365.6 1359.3 1369.23C1358.9 1370.84 1355.67 1373.26 1354.05 1373.26C1346.37 1372.86 1338.7 1373.66 1329.81 1366.81Z" fill="#202124"/>
<path d="M1878.17 1432.95C1886.65 1432.55 1892.72 1432.14 1899.18 1432.14C1900.8 1432.14 1903.22 1434.56 1903.63 1436.18C1904.03 1437.79 1902.82 1440.61 1901.2 1441.42C1895.95 1445.05 1883.42 1441.42 1878.17 1432.95Z" fill="#202124"/>
<path d="M1289.8 1340.59C1297.48 1335.75 1305.56 1336.15 1313.64 1338.57C1314.85 1338.98 1316.47 1342.2 1316.47 1343.82C1316.07 1345.43 1313.64 1347.85 1312.03 1347.85C1304.35 1346.64 1296.67 1345.83 1289.8 1340.59Z" fill="#202124"/>
<path d="M1335.46 1321.63C1342.74 1316.79 1351.22 1317.2 1359.3 1318C1360.92 1318 1362.13 1320.83 1363.35 1322.44C1361.73 1324.05 1359.71 1326.88 1358.09 1326.88C1350.41 1326.88 1343.14 1325.67 1335.46 1324.86C1335.46 1323.65 1335.46 1322.44 1335.46 1321.63Z" fill="#202124"/>
<path d="M1197.26 1369.63C1207.36 1369.23 1218.27 1363.98 1227.16 1374.07C1219.49 1378.91 1205.75 1377.29 1197.26 1369.63Z" fill="#202124"/>
<path d="M1327.79 1347.04C1335.87 1340.59 1343.14 1342.61 1350.41 1344.62C1351.63 1345.03 1352.84 1347.85 1352.44 1349.06C1351.63 1350.67 1349.61 1353.09 1348.39 1353.09C1341.52 1352.29 1334.65 1352.69 1327.79 1347.04Z" fill="#202124"/>
<path d="M1743.6 1389.39C1754.11 1386.97 1764.21 1386.97 1776.33 1389.8C1773.91 1392.22 1773.1 1394.23 1771.89 1394.64C1764.62 1396.65 1753.7 1395.04 1743.6 1389.39Z" fill="#202124"/>
<path d="M1418.71 1326.47C1425.58 1323.25 1432.85 1324.46 1439.72 1325.67C1440.93 1326.07 1442.15 1328.09 1442.55 1329.7C1442.55 1330.51 1441.74 1332.52 1440.53 1332.93C1435.68 1336.56 1422.75 1332.52 1418.71 1326.47Z" fill="#202124"/>
<path d="M1778.36 1371.24C1771.08 1370.84 1763.81 1370.84 1756.94 1370.03C1754.92 1369.63 1753.3 1367.21 1751.68 1365.6C1753.71 1364.39 1755.32 1361.56 1756.94 1361.97C1763.4 1362.37 1769.87 1363.58 1776.33 1364.79C1777.55 1365.19 1778.36 1367.21 1779.16 1368.42C1779.16 1369.63 1778.76 1370.44 1778.36 1371.24Z" fill="#202124"/>
<path d="M1672.89 1348.25C1680.97 1349.46 1688.24 1350.27 1695.51 1351.88C1696.73 1352.29 1697.94 1355.11 1698.34 1356.72C1698.34 1357.53 1695.51 1359.95 1694.71 1359.55C1687.43 1357.53 1680.56 1355.11 1673.29 1352.69C1672.48 1352.69 1672.89 1350.67 1672.89 1348.25Z" fill="#202124"/>
<path d="M1655.51 1401.09C1663.59 1401.89 1669.65 1401.89 1675.71 1403.1C1677.73 1403.51 1678.95 1407.14 1680.56 1409.15C1678.54 1409.96 1676.12 1412.38 1674.1 1411.98C1669.25 1411.17 1663.99 1409.56 1659.55 1407.54C1658.34 1407.14 1657.93 1404.72 1655.51 1401.09Z" fill="#202124"/>
<path d="M1366.98 1349.46C1375.07 1345.83 1381.94 1347.04 1388.8 1347.45C1390.02 1347.45 1392.04 1350.27 1392.44 1351.88C1392.85 1352.69 1390.42 1355.11 1389.21 1355.51C1381.94 1356.32 1374.26 1357.13 1366.98 1349.46Z" fill="#202124"/>
<path d="M1378.3 1402.3C1387.19 1398.27 1394.46 1399.07 1401.33 1400.28C1402.95 1400.28 1404.16 1403.91 1405.37 1405.53C1403.76 1406.74 1402.14 1408.75 1400.52 1408.75C1393.65 1407.54 1386.38 1407.14 1378.3 1402.3Z" fill="#202124"/>
<path d="M1372.64 1372.45C1380.32 1366.81 1387.19 1368.82 1394.06 1369.63C1395.27 1369.63 1396.89 1372.86 1397.29 1374.47C1397.29 1375.28 1394.87 1377.7 1393.65 1377.7C1386.78 1377.7 1379.51 1378.5 1372.64 1372.45Z" fill="#202124"/>
<path d="M1411.43 1348.66C1419.11 1349.06 1424.77 1349.06 1430.43 1349.87C1432.04 1349.87 1433.25 1352.69 1434.06 1354.71C1434.47 1355.51 1433.25 1357.53 1432.04 1357.93C1427.19 1360.76 1416.69 1356.72 1411.43 1348.66Z" fill="#202124"/>
<path d="M1298.69 1363.58C1303.94 1358.74 1311.62 1356.72 1316.47 1359.55C1317.68 1360.35 1319.3 1362.37 1319.3 1363.58C1319.3 1364.79 1317.28 1366.81 1316.07 1367.21C1309.6 1368.82 1303.54 1368.42 1298.69 1363.58Z" fill="#202124"/>
<path d="M1490.23 1383.34C1497.91 1380.52 1503.97 1379.31 1510.03 1381.33C1511.25 1381.73 1513.27 1384.15 1513.27 1384.96C1512.86 1386.57 1510.84 1389.39 1509.63 1389.39C1503.16 1389.8 1496.7 1390.2 1490.23 1383.34Z" fill="#202124"/>
<path d="M1438.1 1377.7C1429.21 1384.55 1421.54 1381.33 1413.45 1379.31C1419.52 1371.65 1427.19 1371.24 1438.1 1377.7Z" fill="#202124"/>
<path d="M1653.49 1374.07C1661.57 1372.45 1667.63 1374.07 1673.69 1376.08C1674.91 1376.49 1676.12 1379.31 1676.52 1381.33C1676.52 1382.13 1673.69 1383.75 1672.48 1383.75C1665.21 1383.34 1658.74 1381.73 1653.49 1374.07Z" fill="#202124"/>
<path d="M1518.92 1363.58C1508.42 1365.6 1499.93 1366 1491.45 1359.95C1500.74 1354.71 1511.25 1355.92 1518.92 1363.58Z" fill="#202124"/>
<path d="M1497.51 1331.31C1505.18 1327.68 1510.84 1328.09 1516.1 1328.89C1517.71 1329.3 1519.73 1332.12 1520.14 1334.14C1520.14 1334.94 1517.31 1337.36 1515.69 1337.77C1509.23 1338.57 1503.57 1336.96 1497.51 1331.31Z" fill="#202124"/>
<path d="M1228.78 1349.87C1234.44 1347.45 1240.1 1347.45 1244.95 1349.46C1246.56 1349.87 1247.77 1352.69 1248.18 1354.3C1248.18 1355.11 1245.75 1357.53 1244.54 1357.53C1239.69 1357.13 1234.84 1356.32 1229.99 1355.11C1229.59 1354.3 1229.19 1351.48 1228.78 1349.87Z" fill="#202124"/>
<path d="M1463.56 1330.1C1471.24 1326.07 1478.92 1324.86 1487.81 1329.7C1485.38 1331.72 1484.58 1333.73 1482.96 1333.73C1476.49 1334.54 1469.62 1334.54 1463.56 1330.1Z" fill="#202124"/>
<path d="M1618.33 1371.24C1624.39 1370.84 1630.05 1370.03 1636.11 1370.03C1637.32 1370.03 1639.35 1372.05 1639.35 1373.26C1639.35 1374.47 1637.73 1376.89 1636.52 1376.89C1630.05 1377.7 1623.59 1378.5 1618.33 1374.47C1618.33 1373.66 1618.33 1372.45 1618.33 1371.24Z" fill="#202124"/>
<path d="M1284.55 1357.93C1275.25 1362.37 1271.21 1362.37 1263.13 1357.53C1269.6 1352.29 1276.06 1352.29 1284.55 1357.93Z" fill="#202124"/>
<path d="M1708.85 1361.56C1717.74 1357.53 1728.65 1359.14 1734.71 1364.79C1725.82 1367.21 1718.14 1366 1708.85 1361.56Z" fill="#202124"/>
<path d="M1555.29 1365.19C1546.81 1368.82 1539.94 1365.6 1532.66 1361.97C1540.34 1357.53 1550.85 1359.14 1555.29 1365.19Z" fill="#202124"/>
<path d="M1449.42 1242.58C1453.86 1237.34 1459.12 1238.55 1463.97 1239.76C1465.58 1240.16 1467.2 1242.99 1467.2 1244.6C1467.2 1245.81 1464.37 1247.83 1462.75 1248.23C1457.5 1248.63 1453.06 1247.42 1449.42 1242.58Z" fill="#202124"/>
<path d="M1567.01 1424.89C1573.07 1419.24 1580.75 1417.63 1583.98 1420.45C1584.79 1421.26 1586 1423.27 1585.6 1424.08C1585.2 1425.69 1583.18 1427.71 1581.96 1427.31C1577.92 1427.31 1573.48 1426.1 1567.01 1424.89Z" fill="#202124"/>
<path d="M1923.02 1467.23C1937.57 1465.22 1937.97 1465.22 1944.84 1471.27C1936.36 1474.09 1929.08 1472.48 1923.02 1467.23Z" fill="#202124"/>
<path d="M1520.94 1281.3C1530.64 1286.14 1538.72 1287.35 1547.61 1287.75C1549.64 1287.75 1551.66 1285.33 1553.68 1284.12C1552.06 1282.11 1550.44 1278.48 1548.42 1278.48C1541.15 1277.27 1533.47 1277.27 1525.79 1277.27C1524.58 1276.87 1523.77 1278.88 1520.94 1281.3Z" fill="white"/>
<path d="M1576.71 1310.74C1583.58 1315.58 1589.64 1316.79 1595.7 1314.37C1596.91 1313.97 1598.13 1311.95 1598.53 1310.34C1598.53 1309.53 1597.32 1307.52 1596.11 1307.11C1590.05 1306.31 1583.58 1305.5 1576.71 1310.74Z" fill="white"/>
<path d="M1530.64 1307.52C1530.24 1304.29 1531.45 1302.27 1534.68 1302.68C1540.74 1303.08 1547.21 1303.48 1553.27 1304.29C1556.1 1304.69 1559.33 1305.9 1558.93 1309.53C1558.12 1313.57 1554.48 1314.37 1551.25 1313.57C1544.38 1311.95 1537.51 1309.53 1530.64 1307.52C1530.24 1307.11 1530.64 1307.52 1530.64 1307.52Z" fill="#202124"/>
<path d="M1576.71 1310.74C1583.58 1305.5 1590.05 1306.31 1596.51 1307.11C1597.32 1307.11 1598.94 1309.53 1598.94 1310.34C1598.53 1311.95 1597.32 1313.97 1596.11 1314.37C1589.64 1316.79 1583.58 1315.58 1576.71 1310.74Z" fill="#202124"/>
<path d="M1520.94 1281.3C1523.77 1278.88 1524.58 1276.87 1525.79 1276.87C1533.47 1276.87 1540.75 1277.27 1548.42 1278.08C1550.44 1278.48 1551.66 1281.71 1553.68 1283.72C1551.66 1284.93 1549.64 1287.35 1547.61 1287.35C1538.72 1287.75 1530.24 1286.14 1520.94 1281.3Z" fill="#202124"/>
<path fill-rule="evenodd" clip-rule="evenodd" d="M400.363 1312.49C398.469 1302.92 397.273 1296.87 387.736 1291.67C379.892 1287.41 369.346 1289.28 361.792 1294.7C356.396 1298.54 351.262 1302.42 348.108 1308.21L347.613 1309.09C346.592 1310.84 345.392 1312.51 344.041 1313.96C339.682 1318.55 334.37 1321.9 328.559 1324.34C325.717 1325.56 322.82 1326.65 319.925 1327.74C317.238 1328.75 314.553 1329.76 311.916 1330.87C308.678 1332.24 305.441 1333.77 302.618 1335.84C299.257 1338.23 300.364 1345.61 304.058 1347.51C304.764 1347.88 305.594 1348.17 306.382 1348.34C312.11 1349.41 317.796 1350.16 323.648 1349.45C324.769 1349.33 326.139 1349.62 327.093 1350.2C331.659 1352.93 336.432 1355.04 341.828 1355.28C342.511 1355.3 343.11 1355.02 343.578 1354.79C344.248 1354.48 344.65 1354.29 344.65 1355.28L344.716 1358.06C344.872 1362.22 345.262 1366.65 345.65 1371.04C346.05 1375.57 346.447 1380.06 346.58 1384.19C346.675 1387.27 346.68 1391.23 346.657 1395.09L346.588 1402.85C345.885 1407.72 345.441 1412.63 344.997 1417.54C344.816 1419.53 344.635 1421.53 344.437 1423.53C343.612 1431.56 342.433 1439.52 341.253 1447.48C340.833 1450.32 340.413 1453.15 340.008 1455.99C339.436 1460.14 339.139 1464.31 338.843 1468.48C338.608 1471.78 338.374 1475.07 338.004 1478.35C336.931 1488.14 334.833 1497.69 330.591 1506.51L329.716 1508.39C325.162 1518.45 322.411 1529.02 320.568 1539.76C316.605 1563.14 317.025 1586.33 323.598 1609.48C328.493 1626.73 336.139 1642.22 347.701 1655.81C360.568 1670.89 375.533 1683.6 392.642 1693.75C400.288 1698.3 407.98 1702.8 415.999 1706.74C422.013 1709.71 428.4 1711.8 434.927 1713.37C435.626 1713.56 442.199 1715.04 444.857 1715.51L446.832 1715.86C457.368 1717.68 467.95 1718.68 478.656 1717.5C484.529 1716.85 490.356 1716.02 496.183 1715.18L496.185 1715.18L496.517 1715.14C497.535 1714.98 499.548 1714.6 501.063 1714.28L502.479 1713.98C506.022 1713.14 509.612 1712.17 513.108 1711.1C515.906 1710.27 518.656 1709.29 521.22 1707.86C522.339 1707.25 523.318 1706.37 522.852 1704.93C522.516 1703.96 522.82 1702.43 523.005 1701.5C523.102 1701.02 523.165 1700.7 523.085 1700.71C518.798 1701.2 514.555 1701.92 510.313 1702.65C505.697 1703.43 501.083 1704.22 496.418 1704.7C495.664 1704.78 494.909 1704.85 494.154 1704.93C483.253 1706.03 472.348 1707.13 461.36 1705.3C449.845 1703.4 438.423 1701.22 427.421 1697.09C420.386 1694.46 413.634 1691.29 406.9 1688.05L399.61 1684.53C395.579 1682.54 391.684 1680.32 388.12 1677.52C381.873 1672.65 375.766 1667.59 369.892 1662.26C353.481 1647.42 342.246 1629.42 336.185 1608.18C335.766 1606.7 335.337 1605.22 334.908 1603.75C332.712 1596.19 330.517 1588.64 329.659 1580.77C328.213 1567.08 328.633 1553.4 330.591 1539.76C332.316 1527.84 334.542 1515.94 339.483 1504.85C342.887 1497.24 345.806 1480.68 345.806 1480.68C346.355 1476.02 347.272 1464.98 347.272 1464.98C347.396 1462.23 347.72 1459.46 348.108 1456.75L349.956 1443.41C350.964 1435.99 352.646 1419.97 352.646 1419.97C352.7 1419.42 352.809 1418.56 352.951 1417.43C353.591 1412.33 354.918 1401.76 355.111 1390.29C355.273 1380.61 354.503 1370.18 354.041 1363.92C353.883 1361.79 353.762 1360.14 353.725 1359.17C353.697 1358.4 353.668 1357.63 353.639 1356.86C353.204 1345.19 352.77 1333.55 354.016 1321.91C355.136 1311.49 358.513 1304.83 367.312 1298.96C369.636 1297.39 372.209 1296.64 375.032 1297.1C383.686 1298.52 384.967 1301.58 387.641 1307.98L387.736 1308.21L388.816 1310.75L389.42 1312.1C391.371 1316.4 392.491 1321.28 393.114 1325.99C394.608 1337.49 394.11 1349.07 393.321 1360.57C392.9 1366.69 392.231 1372.66 391.565 1378.6C391.067 1383.05 390.57 1387.48 390.181 1391.95C390.092 1392.34 390.025 1392.82 389.985 1393.38C388.913 1409.1 387.98 1424.78 389.099 1440.55C390.311 1458.08 396.185 1473.57 408.26 1486.56C408.679 1487.03 409.052 1487.54 409.425 1488.05L409.425 1488.05C411.698 1491.52 414.286 1494.77 416.932 1497.95L419.589 1501.13C430.777 1514.39 443.085 1526.64 455.626 1538.65C456.962 1539.94 458.296 1541.22 459.63 1542.51C471.095 1553.57 482.538 1564.62 495.066 1574.5L495.316 1574.71C496.389 1575.63 496.145 1576.09 494.927 1576.87C490.777 1579.47 486.348 1581.46 481.593 1582.85C481.394 1582.91 481.195 1582.97 480.997 1583.03C479.661 1583.42 478.348 1583.81 477.211 1584.62C475.299 1586.01 475.346 1588.23 477.397 1589.44C478.003 1589.76 478.703 1590.09 479.355 1590.18C488.306 1591.43 496.465 1589.86 502.852 1582.9L503.049 1582.69C503.813 1581.9 504.286 1581.76 505.276 1582.62C515.439 1591.43 526.628 1598.72 538.516 1605.02C547.079 1609.54 556.114 1612.69 565.728 1613.02C566.583 1613.06 567.442 1613.06 568.306 1613.05C582.572 1612.77 594.227 1606.6 603.458 1595.79C604.437 1594.63 605.323 1593.43 605.789 1591.94C606.255 1590.41 607.094 1586.66 605.789 1585.69C604.806 1584.91 604.284 1585.38 603.535 1586.05C603.254 1586.3 602.941 1586.58 602.56 1586.83L602.198 1587.1C601.963 1587.28 601.742 1587.48 601.528 1587.68L599.718 1589.47C593.487 1595.52 586.298 1599.96 577.665 1602C574.122 1602.79 570.485 1603.34 566.895 1602.79C559.436 1601.72 552.303 1599.54 545.637 1596.06C533.562 1589.75 522.233 1582.33 511.651 1573.75C510.718 1572.96 510.439 1572.36 510.905 1571.15C512.583 1566.89 512.863 1562.43 511.697 1557.98C511.663 1557.87 511.633 1557.75 511.603 1557.62C511.467 1557.05 511.31 1556.39 510.625 1556.36C510.042 1556.32 509.783 1556.89 509.551 1557.41C509.505 1557.51 509.459 1557.61 509.413 1557.7L508.519 1559.52C507.295 1561.92 505.944 1564.22 504.564 1566.56C504.052 1567.44 502.503 1568.61 501.71 1567.96C500.501 1566.96 499.038 1566.01 497.571 1565.06C495.984 1564.03 494.392 1563 493.108 1561.89C482.337 1552.56 472.583 1542.57 462.785 1532.53C456.511 1526.1 450.22 1519.66 443.632 1513.36L441.598 1511.4C427.451 1497.57 415.209 1482.22 404.751 1465.35C401.628 1460.34 399.996 1455.06 399.343 1449.35C398.076 1438.27 396.927 1428.08 397.092 1417.13C397.477 1413.41 397.509 1409.41 397.541 1405.49C397.563 1402.69 397.585 1399.93 397.734 1397.32L397.927 1393.69L401.525 1373.18C401.647 1370.55 401.771 1367.92 401.896 1365.3C402.021 1362.67 402.145 1360.04 402.267 1357.42C402.512 1352.17 402.747 1346.91 402.954 1341.66C403.286 1333.56 403.12 1325.45 401.377 1317.43C400.995 1315.68 400.67 1314.04 400.363 1312.49ZM342.685 1323.76C343.522 1323.13 344.352 1322.5 345.19 1321.91C345.138 1323.31 345.085 1324.69 345.032 1326.05L344.379 1342.23L344.152 1348.29C340.879 1348.65 337.819 1347.64 334.555 1346.3L332.904 1345.61C333.074 1345.56 333.235 1345.52 333.387 1345.48C334.204 1345.26 334.793 1345.11 335.353 1344.86C335.477 1344.8 335.602 1344.75 335.726 1344.69C337.557 1343.84 339.412 1342.97 341.122 1341.93C341.62 1341.64 342.035 1340.44 341.828 1339.9C341.62 1339.32 340.666 1338.7 340.001 1338.7C339.864 1338.7 339.728 1338.7 339.593 1338.7C338.794 1338.69 338.043 1338.68 337.262 1339.03C331.036 1341.76 324.396 1342.38 317.713 1342.38C314.766 1342.38 311.695 1342.34 308.79 1341.97C307.835 1341.84 307.254 1340.4 308.043 1339.98C311.031 1338.66 314.061 1337.38 317.091 1336.09C319.001 1335.29 320.925 1334.5 322.852 1333.71C327.458 1331.83 332.08 1329.94 336.557 1327.78C338.761 1326.74 340.742 1325.24 342.685 1323.76Z" fill="#202124"/>
<path d="M370.638 1543.49C370.638 1533.84 370.638 1526.7 370.638 1519.56C370.638 1517.89 370.731 1516.17 370.918 1514.5C371.058 1513.48 371.384 1509.52 372.736 1509.52C374.041 1509.52 374.228 1510.63 374.461 1511.61C373.762 1517.08 374.135 1519.86 374.507 1523.39C376.186 1538.42 375.533 1552.24 378.19 1567.13C381.547 1586.1 385.929 1604.84 394.694 1622.19C400.382 1633.46 406.955 1644.26 415.673 1653.54C418.19 1656.23 421.034 1658.55 424.204 1660.45C432.13 1665.32 440.428 1669.45 449.612 1671.45C455.253 1672.65 460.988 1673.35 466.815 1673.39C468.54 1673.39 470.218 1673.58 471.803 1674.18C473.901 1674.97 477.678 1676.73 477.631 1678.63C477.584 1680.81 476.559 1685.01 474.601 1685.84C472.876 1686.58 471.011 1686.81 469.099 1686.81C450.358 1686.77 433.062 1682.04 417.724 1671.09C411.477 1666.64 406.442 1661.03 402.107 1654.76C389.333 1636.35 381.594 1615.8 376.186 1594.23C371.71 1576.7 370.079 1558.94 370.638 1543.49Z" fill="#202124"/>
<path d="M607.79 1607.89C607.277 1618.83 604.153 1629.55 599.957 1639.98C595.062 1652.18 587.277 1662.39 578.233 1671.76C571.006 1679.22 563.268 1686.14 555.249 1692.68C549.095 1697.73 542.289 1701.77 535.062 1705.11C533.85 1705.66 532.592 1706.17 531.24 1706.27C529.701 1706.36 526.36 1704.86 525.614 1703.37C524.915 1701.94 526.997 1698.44 527.976 1697.28C528.862 1696.26 530.074 1695.61 531.24 1694.96C534.177 1693.38 537.114 1691.9 540.004 1690.23C549.794 1684.48 557.953 1676.73 566.298 1669.22C571.006 1665 575.389 1660.4 579.631 1655.63C588.209 1645.89 593.943 1634.66 597.906 1622.42C600.377 1614.76 602.428 1607.06 603.221 1599.04C603.314 1598.21 603.547 1597.32 604.526 1597.18C605.412 1597.09 606.018 1597.74 606.391 1598.48C607.277 1600.29 607.79 1605.57 607.79 1607.89Z" fill="#202124"/>
<path d="M471.057 1664.25C461.314 1663.93 451.943 1660.73 443.505 1654.93C441.36 1653.45 439.589 1651.64 439.076 1648.9C438.796 1647.56 439.076 1646.35 440.241 1645.47C441.314 1644.68 443.412 1646.35 444.484 1646.95C452.129 1650.99 460.381 1652.94 468.913 1653.77C474.367 1654.33 479.682 1652.89 485.043 1652.01C486.768 1651.73 488.493 1651.55 490.265 1651.82C492.969 1652.24 493.901 1652.52 494.414 1654.79C494.88 1657.07 493.761 1659.29 491.384 1660.73C490.218 1661.43 489.006 1661.94 487.654 1662.21C482.339 1663.28 477.025 1664.07 471.057 1664.25Z" fill="#202124"/>
<path d="M477.444 1639.12C471.197 1638.88 464.297 1638.05 457.677 1635.54C456.232 1634.99 454.6 1634.99 453.528 1633.83C452.689 1632.9 452.642 1632.67 453.062 1631.46C453.481 1630.26 454.46 1629.65 455.719 1629.51C457.817 1629.24 459.915 1629.14 462.013 1629.38C469.565 1630.26 477.071 1631 484.67 1629.89C489.006 1629.24 493.201 1627.98 497.304 1626.55C499.122 1625.9 500.94 1625.25 502.898 1625.2C505.09 1625.15 506.721 1626.13 507.421 1627.84C508.12 1629.61 507.56 1630.16 505.835 1631.56C505.043 1632.2 504.157 1632.81 503.225 1633.27C495.299 1636.98 487.048 1639.16 477.444 1639.12Z" fill="#202124"/>
<path d="M487.235 1612.35C482.293 1611.84 477.538 1611.42 473.015 1609.75C471.897 1609.34 470.871 1608.87 469.985 1608.04C469.286 1607.39 468.913 1606.65 469.286 1605.72C469.659 1604.84 470.405 1604.61 471.291 1604.65C472.736 1604.75 474.228 1604.75 475.626 1604.98C481.407 1605.81 486.955 1605.12 492.409 1602.94C496.605 1601.22 500.615 1598.99 504.997 1597.79C506.069 1597.51 507.328 1596.58 508.26 1597.65C509.146 1598.72 508.587 1600.11 508.167 1601.31C506.908 1604.84 503.971 1606.88 501.034 1608.73C496.838 1611.29 492.083 1612.35 487.235 1612.35Z" fill="#202124"/>
<path d="M368.633 1319.4C368.467 1320.66 368.383 1321.65 368.133 1322.64C367.549 1324.89 365.048 1325.6 363.547 1323.82C362.338 1322.36 361.462 1320.59 360.879 1318.81C360.212 1316.72 361.588 1314.74 363.464 1314.27C365.298 1313.79 367.174 1314.82 368.008 1316.87C368.383 1317.74 368.467 1318.69 368.633 1319.4Z" fill="#202124"/>
<path d="M498.755 1711.34C499.192 1716.28 499.557 1721.24 499.902 1726.19C500.407 1733.3 500.597 1740.4 499.46 1747.45C497.44 1759.66 491.317 1769.74 483.363 1778.79C480.396 1782.15 476.861 1784.74 472.443 1785.77C465.814 1787.32 461.017 1783.25 461.648 1776.34C461.774 1774.72 461.206 1774.78 460.133 1774.98C458.492 1775.24 456.85 1775.43 455.209 1775.04C450.917 1774.14 449.023 1770.78 450.285 1766.51C451.169 1763.54 453.189 1761.34 455.525 1759.47C456.724 1758.5 458.05 1757.59 459.565 1756.56C458.239 1755.98 457.04 1755.59 455.904 1755.07C453.379 1753.78 451.8 1751.78 451.864 1748.74C451.927 1745.7 453.757 1744.02 456.282 1743.05C466.382 1739.18 476.861 1737.5 487.53 1736.79C487.908 1736.79 488.287 1736.85 488.729 1736.85C490.433 1736.98 491.696 1737.69 491.822 1739.56C492.011 1741.44 490.686 1742.47 489.171 1742.73C485.762 1743.38 482.29 1743.83 478.881 1744.28C473.579 1745.06 468.276 1745.77 463.163 1748.03C464.426 1748.03 465.688 1748.03 466.887 1748.03C468.213 1748.03 469.602 1747.9 470.928 1747.84C474.463 1747.71 477.998 1747.06 481.533 1748.09C482.353 1748.35 483.237 1748.61 483.931 1749.06C486.709 1750.68 486.709 1753.46 483.995 1755.2C482.038 1756.43 479.891 1756.82 477.619 1756.95C475.978 1757.08 474.273 1757.21 472.632 1757.08C465.183 1756.5 462.279 1762.64 458.113 1766.97C461.332 1767.09 464.047 1765.8 466.761 1764.51C468.781 1763.54 470.675 1762.44 472.948 1762.18C474.399 1762.05 475.851 1761.99 476.735 1763.54C477.619 1765.09 476.988 1766.51 476.041 1767.81C474.715 1769.49 472.948 1770.52 471.117 1771.49C469.602 1772.26 468.718 1775.43 469.539 1776.85C470.044 1777.69 470.612 1777.24 471.18 1777.05C473.074 1776.34 474.715 1775.11 475.914 1773.56C481.659 1766.32 486.835 1758.69 490.56 1750.1C491.57 1747.77 492.011 1745.12 492.264 1742.54C492.327 1742.08 492.264 1741.57 492.327 1741.05C493.993 1731.49 492.753 1722.02 491.737 1712.56C491.482 1710.19 498.074 1703.64 498.755 1711.34Z" fill="#202124"/>
<path d="M424.885 1705.79C424.44 1714.66 425.711 1723.47 426.283 1732.35C426.728 1739.48 427.173 1746.62 427.491 1753.82C427.746 1760.64 422.278 1765.07 415.412 1763.79C402.507 1761.28 389.475 1761.41 376.442 1760.83C376.315 1760.83 376.125 1760.96 375.679 1761.15C377.65 1762.31 379.557 1762.82 381.465 1763.47C384.262 1764.37 387.123 1765.07 389.92 1765.97C392.971 1767 394.624 1768.8 394.433 1770.6C394.243 1772.4 391.827 1773.69 388.521 1773.63C385.088 1773.56 381.719 1773.05 378.413 1772.08C377.269 1771.76 376.442 1771.89 375.552 1772.6C373.772 1773.95 371.929 1775.23 370.403 1776.9C369.894 1777.48 369.004 1778.06 369.259 1778.9C369.577 1779.86 370.721 1779.73 371.547 1779.86C373.836 1780.18 376.125 1779.99 378.477 1779.8C381.465 1779.54 384.516 1779.03 387.504 1779.86C388.966 1780.25 390.428 1780.83 390.619 1782.5C390.81 1784.04 389.538 1784.94 388.394 1785.65C386.423 1786.94 384.135 1787.32 381.846 1787.84C380.13 1788.16 377.841 1791.31 377.968 1792.98C378.095 1794.07 378.795 1794.39 379.748 1794.59C382.227 1795.17 384.453 1794.33 386.614 1793.17C391.255 1790.73 395.133 1787.32 399.265 1784.11C403.334 1780.89 407.657 1778 411.344 1774.2C411.852 1773.63 412.679 1773.37 413.378 1773.05C414.522 1772.6 415.603 1772.73 416.43 1773.63C417.256 1774.53 417.256 1775.68 416.875 1776.78C416.43 1778 415.603 1779.03 414.65 1779.93C408.229 1786.16 401.935 1792.59 394.433 1797.54C389.92 1800.57 385.279 1803.14 379.621 1802.88C370.912 1802.5 367.224 1796.71 370.594 1788.61C369.195 1788.29 367.796 1788.09 366.461 1787.64C360.295 1785.65 358.451 1779.99 362.329 1774.65C364.109 1772.21 366.589 1770.6 369.449 1769C367.224 1767.71 365.19 1766.55 363.601 1764.82C361.693 1762.76 360.422 1760.51 361.503 1757.62C362.584 1754.85 364.936 1753.95 367.606 1753.82C376.506 1753.31 385.406 1754.14 394.306 1754.46C400.346 1754.66 406.385 1755.17 412.361 1756.14C414.205 1756.46 415.794 1755.75 417.447 1755.17C418.337 1754.85 418.591 1754.27 418.528 1753.31C417.263 1735.85 416.474 1718.39 415.873 1700.93C415.779 1698.2 425.203 1698.33 424.885 1705.79Z" fill="#202124"/>
</svg>
